<svg width="32" height="32" viewBox="0 0 32 32" fill="none" xmlns="http://www.w3.org/2000/svg">
<path d="M12.3864 21.1727L17.5598 15.9993L12.3864 10.826C12.263 10.7026 12.1651 10.556 12.0983 10.3947C12.0315 10.2334 11.9971 10.0606 11.9971 9.886C11.9971 9.71143 12.0315 9.53856 12.0983 9.37728C12.1651 9.21599 12.263 9.06944 12.3864 8.946C12.5099 8.82256 12.6564 8.72464 12.8177 8.65783C12.979 8.59103 13.1519 8.55664 13.3264 8.55664C13.501 8.55664 13.6739 8.59103 13.8352 8.65783C13.9964 8.72464 14.143 8.82256 14.2664 8.946L20.3864 15.066C20.9064 15.586 20.9064 16.426 20.3864 16.946L14.2664 23.066C14.1431 23.1896 13.9966 23.2877 13.8353 23.3546C13.674 23.4215 13.5011 23.4559 13.3264 23.4559C13.1518 23.4559 12.9789 23.4215 12.8176 23.3546C12.6563 23.2877 12.5098 23.1896 12.3864 23.066C11.8798 22.546 11.8664 21.6927 12.3864 21.1727Z" fill="#111111"/>
</svg>
