<svg width="35" height="35" viewBox="0 0 35 35" fill="none" xmlns="http://www.w3.org/2000/svg"><path d="M17.5003 32.0827C25.5545 32.0827 32.0837 25.5535 32.0837 17.4993C32.0837 9.4452 25.5545 2.91602 17.5003 2.91602C9.44617 2.91602 2.91699 9.4452 2.91699 17.4993C2.91699 25.5535 9.44617 32.0827 17.5003 32.0827Z" stroke="white" stroke-width="2" stroke-linecap="round" stroke-linejoin="round"/><path d="M17.5 26.25C22.3325 26.25 26.25 22.3325 26.25 17.5C26.25 12.6675 22.3325 8.75 17.5 8.75C12.6675 8.75 8.75 12.6675 8.75 17.5C8.75 22.3325 12.6675 26.25 17.5 26.25Z" stroke="white" stroke-width="2" stroke-linecap="round" stroke-linejoin="round"/><path d="M17.4997 20.4173C19.1105 20.4173 20.4163 19.1115 20.4163 17.5007C20.4163 15.8898 19.1105 14.584 17.4997 14.584C15.8888 14.584 14.583 15.8898 14.583 17.5007C14.583 19.1115 15.8888 20.4173 17.4997 20.4173Z" stroke="white" stroke-width="2" stroke-linecap="round" stroke-linejoin="round"/></svg>