<svg width="35" height="35" viewBox="0 0 35 35" fill="none" xmlns="http://www.w3.org/2000/svg"><path d="M13.2217 28.9563C13.774 28.9563 14.2217 28.5086 14.2217 27.9563C14.2217 27.404 13.774 26.9563 13.2217 26.9563V27.9563V28.9563ZM6.22253 23.2898L5.22253 23.2899L6.22253 23.2898ZM7.22168 3.49996C7.22166 2.94767 6.77392 2.49998 6.22164 2.5C5.66935 2.50002 5.22166 2.94776 5.22168 3.50004L6.22168 3.5L7.22168 3.49996ZM13.2217 11.6704C13.774 11.6704 14.2217 11.2227 14.2217 10.6704C14.2217 10.1181 13.774 9.67043 13.2217 9.67043V10.6704V11.6704ZM27.2217 14.3889L27.2217 13.3889L27.2217 13.3889L27.2217 14.3889ZM20.2217 14.3889L20.2217 15.3889L20.2217 15.3889L20.2217 14.3889ZM28.7775 3.5L29.7775 3.50002C29.7775 3.2348 29.6721 2.98044 29.4846 2.7929C29.2971 2.60536 29.0427 2.5 28.7775 2.5V3.5ZM28.7773 12.8334L29.7773 12.8334L29.7773 12.8334L28.7773 12.8334ZM18.6661 12.8333L17.6661 12.8333L17.6661 12.8333L18.6661 12.8333ZM18.6662 6.61111L18.0018 5.86371C17.7883 6.05347 17.6662 6.32547 17.6662 6.6111L18.6662 6.61111ZM22.1661 3.5V2.5C21.9212 2.5 21.6848 2.58988 21.5018 2.7526L22.1661 3.5ZM27.2217 31.5L27.2217 30.5L27.2217 30.5L27.2217 31.5ZM20.2217 31.5L20.2217 32.5L20.2217 32.5L20.2217 31.5ZM28.7775 20.6111L29.7775 20.6111C29.7775 20.3459 29.6721 20.0916 29.4846 19.904C29.2971 19.7165 29.0427 19.6111 28.7775 19.6111V20.6111ZM28.7773 29.9445L29.7773 29.9445L29.7773 29.9445L28.7773 29.9445ZM18.6661 29.9444L17.6661 29.9444L17.6661 29.9444L18.6661 29.9444ZM18.6662 23.7222L18.0018 22.9748C17.7883 23.1646 17.6662 23.4366 17.6662 23.7222L18.6662 23.7222ZM22.1661 20.6111V19.6111C21.9212 19.6111 21.6848 19.701 21.5018 19.8637L22.1661 20.6111ZM13.2217 27.9563V26.9563H10.8892V27.9563V28.9563H13.2217V27.9563ZM6.22253 23.2898L7.22253 23.2898L7.22199 10.6704L6.22199 10.6704L5.22199 10.6705L5.22253 23.2899L6.22253 23.2898ZM6.22199 10.6704L7.22199 10.6704L7.22168 3.49996L6.22168 3.5L5.22168 3.50004L5.22199 10.6705L6.22199 10.6704ZM13.2217 10.6704V9.67043H6.22199V10.6704V11.6704H13.2217V10.6704ZM10.8892 27.9563V26.9563C8.86421 26.9563 7.22262 25.3148 7.22253 23.2898L6.22253 23.2898L5.22253 23.2899C5.22266 26.4194 7.75967 28.9563 10.8892 28.9563V27.9563ZM27.2217 14.3889L27.2217 13.3889L20.2217 13.3889L20.2217 14.3889L20.2217 15.3889L27.2217 15.3889L27.2217 14.3889ZM28.7775 3.5L27.7775 3.49998L27.7773 12.8333L28.7773 12.8334L29.7773 12.8334L29.7775 3.50002L28.7775 3.5ZM27.2217 14.3889L27.2217 15.3889C28.6331 15.3889 29.7772 14.2448 29.7773 12.8334L28.7773 12.8334L27.7773 12.8333C27.7773 13.1402 27.5285 13.3889 27.2217 13.3889L27.2217 14.3889ZM18.6661 12.8333L17.6661 12.8333C17.6661 14.2447 18.8103 15.3889 20.2217 15.3889L20.2217 14.3889L20.2217 13.3889C19.9149 13.3889 19.6661 13.1401 19.6661 12.8333L18.6661 12.8333ZM18.6661 12.8333L19.6661 12.8333L19.6662 6.61112L18.6662 6.61111L17.6662 6.6111L17.6661 12.8333L18.6661 12.8333ZM22.1661 3.5V4.5H28.7775V3.5V2.5H22.1661V3.5ZM22.1661 3.5L21.5018 2.7526L18.0018 5.86371L18.6662 6.61111L19.3305 7.35852L22.8305 4.2474L22.1661 3.5ZM27.2217 31.5L27.2217 30.5L20.2217 30.5L20.2217 31.5L20.2217 32.5L27.2217 32.5L27.2217 31.5ZM28.7775 20.6111L27.7775 20.6111L27.7773 29.9445L28.7773 29.9445L29.7773 29.9445L29.7775 20.6111L28.7775 20.6111ZM27.2217 31.5L27.2217 32.5C28.6331 32.5 29.7772 31.3559 29.7773 29.9445L28.7773 29.9445L27.7773 29.9445C27.7773 30.2513 27.5285 30.5 27.2217 30.5L27.2217 31.5ZM18.6661 29.9444L17.6661 29.9444C17.6661 31.3558 18.8103 32.5 20.2217 32.5L20.2217 31.5L20.2217 30.5C19.9148 30.5 19.6661 30.2512 19.6661 29.9444L18.6661 29.9444ZM18.6661 29.9444L19.6661 29.9444L19.6662 23.7222L18.6662 23.7222L17.6662 23.7222L17.6661 29.9444L18.6661 29.9444ZM22.1661 20.6111V21.6111H28.7775V20.6111V19.6111H22.1661V20.6111ZM22.1661 20.6111L21.5018 19.8637L18.0018 22.9748L18.6662 23.7222L19.3305 24.4696L22.8305 21.3585L22.1661 20.6111Z" fill="white"/></svg>