<svg width="35" height="35" viewBox="0 0 35 35" fill="none" xmlns="http://www.w3.org/2000/svg"><path d="M26.1545 16.9235L26.423 15.9603L26.1545 16.9235ZM26.7658 17.5393L27.7401 17.314L26.7658 17.5393ZM18.6691 8.29132L19.0158 7.35333L18.6691 8.29132ZM19.1987 8.98077L18.2097 9.12808L19.1987 8.98077ZM29.8981 2.91602C29.8981 2.36373 29.4504 1.91602 28.8981 1.91602C28.3459 1.91602 27.8981 2.36373 27.8981 2.91602H28.8981H29.8981ZM27.8981 12.5419C27.8981 13.0942 28.3459 13.5419 28.8981 13.5419C29.4504 13.5419 29.8981 13.0942 29.8981 12.5419H28.8981H27.8981ZM24.1732 6.75031C23.6209 6.75031 23.1732 7.19802 23.1732 7.75031C23.1732 8.30259 23.6209 8.75031 24.1732 8.75031V7.75031V6.75031ZM33.5413 8.75031C34.0936 8.75031 34.5413 8.30259 34.5413 7.75031C34.5413 7.19802 34.0936 6.75031 33.5413 6.75031V7.75031V8.75031ZM10.8353 22.592C10.5481 22.1203 9.93289 21.9706 9.46113 22.2578C8.98937 22.5449 8.83972 23.1602 9.12688 23.6319L9.98108 23.112L10.8353 22.592ZM20.0597 23.6319C20.3469 23.1602 20.1972 22.5449 19.7255 22.2578C19.2537 21.9706 18.6385 22.1203 18.3513 22.592L19.2055 23.112L20.0597 23.6319ZM10.5423 15.9572V14.9572C9.99005 14.9572 9.54234 15.4049 9.54234 15.9572H10.5423ZM10.6749 15.9572H11.6749C11.6749 15.4049 11.2271 14.9572 10.6749 14.9572V15.9572ZM18.5249 15.9572V14.9572C17.9726 14.9572 17.5249 15.4049 17.5249 15.9572H18.5249ZM18.6427 15.9572H19.6427C19.6427 15.4049 19.195 14.9572 18.6427 14.9572V15.9572ZM10.6749 16.0655V17.0655C11.2271 17.0655 11.6749 16.6178 11.6749 16.0655H10.6749ZM10.5423 16.0655H9.54234C9.54234 16.6178 9.99005 17.0655 10.5423 17.0655V16.0655ZM18.6427 16.0655V17.0655C19.195 17.0655 19.6427 16.6178 19.6427 16.0655H18.6427ZM18.5249 16.0655H17.5249C17.5249 16.6178 17.9726 17.0655 18.5249 17.0655V16.0655ZM18.6691 8.29132L19.0158 7.35333C17.5378 6.8071 15.9428 6.50947 14.2814 6.50947V7.50947V8.50947C15.7024 8.50947 17.0628 8.76376 18.3224 9.22931L18.6691 8.29132ZM26.1545 16.9235L26.423 15.9603C23.1864 15.0579 20.7008 12.2779 20.1878 8.83346L19.1987 8.98077L18.2097 9.12808C18.8382 13.3482 21.8842 16.7711 25.8859 17.8868L26.1545 16.9235ZM27.1049 20.5252H28.1049C28.1049 19.4214 27.9788 18.3462 27.7401 17.314L26.7658 17.5393L25.7916 17.7646C25.9963 18.65 26.1049 19.5741 26.1049 20.5252H27.1049ZM14.2814 33.541V34.541C21.9299 34.541 28.1049 28.2519 28.1049 20.5252H27.1049H26.1049C26.1049 27.1755 20.7974 32.541 14.2814 32.541V33.541ZM1.45801 20.5252H0.458008C0.458008 28.2519 6.63299 34.541 14.2814 34.541V33.541V32.541C7.76552 32.541 2.45801 27.1755 2.45801 20.5252H1.45801ZM14.2814 7.50947V6.50947C6.63299 6.50947 0.458008 12.7986 0.458008 20.5252H1.45801H2.45801C2.45801 13.875 7.76552 8.50947 14.2814 8.50947V7.50947ZM26.1545 16.9235L25.8859 17.8868C25.8762 17.8841 25.8607 17.8775 25.8429 17.8599C25.8234 17.8407 25.8016 17.8082 25.7916 17.7646L26.7658 17.5393L27.7401 17.314C27.5772 16.6093 27.0286 16.1291 26.423 15.9603L26.1545 16.9235ZM18.6691 8.29132L18.3224 9.22931C18.273 9.21103 18.2415 9.18157 18.2261 9.16101C18.212 9.1423 18.21 9.13038 18.2097 9.12808L19.1987 8.98077L20.1878 8.83346C20.0967 8.2217 19.7007 7.60646 19.0158 7.35333L18.6691 8.29132ZM28.8981 2.91602H27.8981V12.5419H28.8981H29.8981V2.91602H28.8981ZM24.1732 7.75031V8.75031H33.5413V7.75031V6.75031H24.1732V7.75031ZM14.5933 25.7626V24.7626C13.0316 24.7626 11.6391 23.9126 10.8353 22.592L9.98108 23.112L9.12688 23.6319C10.2631 25.4986 12.2769 26.7626 14.5933 26.7626V25.7626ZM19.2055 23.112L18.3513 22.592C17.5475 23.9126 16.155 24.7626 14.5933 24.7626V25.7626V26.7626C16.9097 26.7626 18.9235 25.4986 20.0597 23.6319L19.2055 23.112ZM10.5423 15.9572V16.9572H10.6749V15.9572V14.9572H10.5423V15.9572ZM18.5249 15.9572V16.9572H18.6427V15.9572V14.9572H18.5249V15.9572ZM10.6749 15.9572H9.67486V16.0655H10.6749H11.6749V15.9572H10.6749ZM10.6749 16.0655V15.0655H10.5423V16.0655V17.0655H10.6749V16.0655ZM10.5423 16.0655H11.5423V15.9572H10.5423H9.54234V16.0655H10.5423ZM18.6427 15.9572H17.6427V16.0655H18.6427H19.6427V15.9572H18.6427ZM18.6427 16.0655V15.0655H18.5249V16.0655V17.0655H18.6427V16.0655ZM18.5249 16.0655H19.5249V15.9572H18.5249H17.5249V16.0655H18.5249Z" fill="white"/></svg>