<svg width="44" height="49" viewBox="0 0 44 49" fill="none" xmlns="http://www.w3.org/2000/svg"><path fill-rule="evenodd" clip-rule="evenodd" d="M31.5262 25.3985C29.0172 26.4941 26.3089 27.1698 23.4763 27.3449C22.9877 27.375 22.4955 27.3904 22 27.3904C21.5045 27.3904 21.0123 27.375 20.5237 27.3449C17.6904 27.1697 14.9816 26.4937 12.4721 25.3977C7.20569 23.0976 2.81739 18.9477 0 13.6952C4.39139 5.50818 12.5992 0 22 0C31.4008 0 39.6086 5.50818 44 13.6952C41.1823 18.9483 36.7933 23.0985 31.5262 25.3985Z" fill="#E5E5E5"/><path d="M12.472 27.5296C11.8652 27.2646 11.2702 26.975 10.6879 26.6621C8.79532 28.0999 7.19543 29.8906 5.99072 31.9336C8.03841 35.4062 11.2278 38.1499 15.0554 39.6705C16.8793 40.3951 18.8482 40.8421 20.9074 40.9578H23.0533C25.1121 40.8421 28.7306 43.0417 23.4761 48.5926C27.3043 47.072 35.9221 35.4066 37.97 31.9336C36.7687 29.8964 35.1745 28.1101 33.289 26.6744C32.7134 26.9829 32.1254 27.2686 31.5261 27.5303C29.0171 28.6259 26.3088 29.3016 23.4761 29.4767C22.9876 29.5069 22.4954 29.5222 21.9999 29.5222C21.5044 29.5222 21.0121 29.5069 20.5236 29.4767C17.6903 29.3016 14.9815 28.6256 12.472 27.5296Z" fill="#E5E5E5"/><rect x="11.3916" y="10.1914" width="21.2633" height="8.18981" rx="4.0949" fill="#557BE6"/><ellipse cx="27.8869" cy="14.2417" rx="1.39224" ry="1.50146" fill="#04FED1"/><ellipse cx="21.9801" cy="34.4429" rx="1.39224" ry="1.50146" fill="#557BE6"/><ellipse cx="16.4123" cy="14.2417" rx="1.39224" ry="1.50146" fill="#04FED1"/><ellipse cx="16.4123" cy="34.4429" rx="1.39224" ry="1.50146" fill="#557BE6"/><ellipse cx="27.55" cy="34.4429" rx="1.39224" ry="1.50146" fill="#557BE6"/></svg>