<svg width="31" height="31" viewBox="0 0 31 31" fill="none" xmlns="http://www.w3.org/2000/svg"><path d="M2.81285 30.9806C2.84502 30.9832 2.87222 31 2.9058 31L16.7911 31C18.9274 31 20.666 29.2614 20.666 27.125V25.8334C20.666 25.1204 20.0875 24.5416 19.3744 24.5416C18.6614 24.5416 18.0829 25.1204 18.0829 25.8334V27.125C18.0829 27.8367 17.5029 28.4166 16.7911 28.4166H10.7733L11.1673 28.2849C12.2134 27.9232 12.9161 26.9377 12.9161 25.8334L12.9161 6.45857H16.7911C17.5029 6.45857 18.0829 7.03849 18.0829 7.75015V10.3335C18.0829 11.0464 18.6614 11.6251 19.3744 11.6251C20.0875 11.6251 20.666 11.0464 20.666 10.3335V7.75015C20.666 5.61376 18.9274 3.87518 16.7911 3.87518H12.9161V2.5836C12.9161 1.15886 11.7577 0.000200272 10.3329 0.000200272C10.0564 0.000200272 9.79415 0.0401707 9.5101 0.128153L1.74974 2.71533C0.702244 3.07696 -0.000427246 4.06249 -0.000427246 5.16676L-0.000427246 28.4166C-0.000427246 29.9227 1.29778 31.1034 2.81285 30.9806Z" fill="#F2F6FE"/><path d="M30.6207 17.1703L25.4541 12.0037C25.0847 11.6343 24.5294 11.5231 24.0462 11.7235C23.5644 11.9236 23.2494 12.3952 23.2494 12.9169V16.7919H18.0826C17.3698 16.7919 16.791 17.3706 16.791 18.0835C16.791 18.7965 17.3698 19.3753 18.0826 19.3753H23.2494L23.2494 23.2502C23.2494 23.772 23.5644 24.2434 24.0462 24.4437C24.5294 24.6438 25.0847 24.5328 25.4541 24.1634L30.6207 18.9966C31.1259 18.4917 31.1259 17.6755 30.6207 17.1703Z" fill="#F2F6FE"/></svg>