<svg width="35" height="35" viewBox="0 0 35 35" fill="none" xmlns="http://www.w3.org/2000/svg"><path d="M31.2371 15.9278C31.4982 15.8126 31.7197 15.6234 31.8743 15.3835C32.0289 15.1437 32.1097 14.8638 32.1067 14.5784C32.1038 14.2931 32.0172 14.0149 31.8577 13.7783C31.6982 13.5417 31.4728 13.3571 31.2094 13.2474L18.71 7.55404C18.33 7.38071 17.9172 7.29102 17.4996 7.29102C17.0819 7.29102 16.6692 7.38071 16.2892 7.55404L3.79125 13.2415C3.53162 13.3552 3.31075 13.5422 3.15566 13.7794C3.00057 14.0166 2.91797 14.2939 2.91797 14.5774C2.91797 14.8608 3.00057 15.1381 3.15566 15.3753C3.31075 15.6126 3.53162 15.7995 3.79125 15.9132L16.2892 21.6124C16.6692 21.7857 17.0819 21.8754 17.4996 21.8754C17.9172 21.8754 18.33 21.7857 18.71 21.6124L31.2371 15.9278Z" stroke="white" stroke-width="2" stroke-linecap="round" stroke-linejoin="round"/><path d="M32.083 14.584V23.334" stroke="white" stroke-width="2" stroke-linecap="round" stroke-linejoin="round"/><path d="M8.75 18.2285V23.3327C8.75 24.493 9.67187 25.6058 11.3128 26.4263C12.9538 27.2467 15.1794 27.7077 17.5 27.7077C19.8206 27.7077 22.0462 27.2467 23.6872 26.4263C25.3281 25.6058 26.25 24.493 26.25 23.3327V18.2285" stroke="white" stroke-width="2" stroke-linecap="round" stroke-linejoin="round"/></svg>